<svg width="64" height="97" viewBox="0 0 64 97" fill="none" xmlns="http://www.w3.org/2000/svg">
<path d="M63.33 2.00734C63.3009 1.50895 63.0897 1.03861 62.7367 0.685597C62.3836 0.332587 61.9132 0.12149 61.4148 0.0923857C48.2326 -0.671557 37.6481 3.33659 33.0995 10.8436C30.0943 15.8067 30.0994 21.8342 33.0588 27.5841C31.374 29.5889 30.143 31.9344 29.45 34.4596L25.3063 30.3012C27.2979 26.1428 27.2215 21.8087 25.0516 18.208C21.6899 12.6592 13.9298 9.68496 4.29528 10.2503C3.79683 10.2794 3.32643 10.4905 2.97337 10.8435C2.62032 11.1965 2.4092 11.6668 2.38009 12.1652C1.81215 21.7985 4.78935 29.5576 10.3388 32.919C12.17 34.038 14.2745 34.6301 16.4206 34.6302C18.5036 34.6044 20.5541 34.111 22.4208 33.1864L28.7878 39.5526V46.8533C28.7878 47.3936 29.0025 47.9118 29.3845 48.2938C29.7666 48.6759 30.2849 48.8905 30.8252 48.8905C31.3656 48.8905 31.8838 48.6759 32.2659 48.2938C32.648 47.9118 32.8627 47.3936 32.8627 46.8533V39.3438C32.8534 36.1028 33.9564 32.9568 35.9876 30.4311C38.6081 31.8005 41.5144 32.5333 44.471 32.5701C47.3294 32.5793 50.1348 31.7986 52.5774 30.314C60.0853 25.771 64.1042 15.1879 63.33 2.00734ZM12.4399 29.4354C8.53314 27.0697 6.32252 21.47 6.37601 14.2584C13.5885 14.1973 19.1889 16.4153 21.5549 20.3216C22.7901 22.3588 22.9913 24.7346 22.1814 27.1818L15.9647 20.9658C15.5795 20.5999 15.0666 20.3989 14.5353 20.4057C14.004 20.4125 13.4964 20.6266 13.1207 21.0023C12.745 21.3779 12.5309 21.8855 12.5241 22.4167C12.5173 22.9479 12.7183 23.4608 13.0843 23.8459L19.301 30.0619C16.8535 30.8716 14.4799 30.6705 12.4399 29.4354ZM50.4661 26.8329C47.0534 28.8981 43.0422 29.056 38.9673 27.3422L52.6411 13.6676C53.007 13.2825 53.208 12.7696 53.2012 12.2384C53.1944 11.7072 52.9804 11.1996 52.6047 10.824C52.229 10.4483 51.7213 10.2343 51.1901 10.2275C50.6588 10.2207 50.1458 10.4217 49.7606 10.7876L36.0844 24.4443C34.3627 20.37 34.5181 16.3567 36.5937 12.947C40.1439 7.0901 48.5636 3.82552 59.3442 4.07762C59.5887 14.8543 56.3288 23.2831 50.4661 26.8329Z" fill="#1C3312"/>
<path d="M30.7524 96.2649L26.2933 92.2314C10.4558 77.9615 0 68.5195 0 56.9997C0 47.5577 7.44209 40.1936 16.9138 40.1936C22.2648 40.1936 27.4004 42.6687 30.7524 46.5494C34.1044 42.6687 39.2401 40.1936 44.591 40.1936C54.0628 40.1936 61.5049 47.5577 61.5049 56.9997C61.5049 68.5195 51.049 77.9615 35.2115 92.2314L30.7524 96.2649Z" fill="#1C3312"/>
</svg>
